/* XPM */
static char * xmounter_xpm[] = {
"48 48 347 2",
"  	c None",
". 	c #000000",
"+ 	c #212E36",
"@ 	c #50748D",
"# 	c #7BACCD",
"$ 	c #75BCF9",
"% 	c #6FB9F9",
"& 	c #5BABF8",
"* 	c #489EF6",
"= 	c #398CE4",
"- 	c #245E9F",
"; 	c #13365F",
"> 	c #010916",
", 	c #73ADB0",
"' 	c #A8DFFE",
") 	c #A2DBFD",
"! 	c #97D3FC",
"~ 	c #89CAFB",
"{ 	c #7AC0FA",
"] 	c #63B1F8",
"^ 	c #53A6F7",
"/ 	c #3B96F4",
"( 	c #3183E2",
"_ 	c #2369C5",
": 	c #466066",
"< 	c #9DDADC",
"[ 	c #ADE2F5",
"} 	c #B7E7FA",
"| 	c #9CD9E7",
"1 	c #83C9DB",
"2 	c #388FED",
"3 	c #2E7CDA",
"4 	c #154A9B",
"5 	c #041024",
"6 	c #6A936E",
"7 	c #BEE3C0",
"8 	c #CAE9CC",
"9 	c #BAE1BB",
"0 	c #AADDC4",
"a 	c #A3D8A4",
"b 	c #8CCC8C",
"c 	c #8BCD98",
"d 	c #6DBBC8",
"e 	c #59AAEC",
"f 	c #449CF5",
"g 	c #2872CB",
"h 	c #1F61BE",
"i 	c #1249A4",
"j 	c #FF0000",
"k 	c #ABDBAC",
"l 	c #94D195",
"m 	c #78C479",
"n 	c #99D39A",
"o 	c #53AEA3",
"p 	c #FA0906",
"q 	c #7CC781",
"r 	c #A7DAA8",
"s 	c #8FCDAD",
"t 	c #5BB3AF",
"u 	c #F80508",
"v 	c #EE564D",
"w 	c #D2C1A9",
"x 	c #CAE5C8",
"y 	c #B6E0B7",
"z 	c #71C490",
"A 	c #71C2A5",
"B 	c #4784DB",
"C 	c #8A477C",
"D 	c #FD0001",
"E 	c #BE0000",
"F 	c #D2E3CB",
"G 	c #C7E8C9",
"H 	c #C1E5C2",
"I 	c #B2DEB3",
"J 	c #85C987",
"K 	c #6FBBEC",
"L 	c #56A8F8",
"M 	c #2F80DE",
"N 	c #BC203C",
"O 	c #8E0000",
"P 	c #090000",
"Q 	c #D71E27",
"R 	c #DBB6A3",
"S 	c #AFDDB0",
"T 	c #3890EE",
"U 	c #C41C34",
"V 	c #691D5B",
"W 	c #0B1939",
"X 	c #80ABE3",
"Y 	c #F21713",
"Z 	c #F52621",
"` 	c #C9DABD",
" .	c #4AA457",
"..	c #54A895",
"+.	c #4CA2F6",
"@.	c #4D69B8",
"#.	c #6C1A51",
"$.	c #04329A",
"%.	c #01226C",
"&.	c #12263D",
"*.	c #68B4F9",
"=.	c #A2A479",
"-.	c #FC0605",
";.	c #EA4338",
">.	c #B6DEB5",
",.	c #91CD92",
"'.	c #A0D7A0",
").	c #6BC26A",
"!.	c #5BAB7A",
"~.	c #6AB5D1",
"{.	c #60AFF8",
"].	c #3989E5",
"^.	c #D0192E",
"/.	c #8C1B47",
"(.	c #032E8C",
"_.	c #0A3A9A",
":.	c #CF8274",
"<.	c #DC6B57",
"[.	c #68B499",
"}.	c #A03C67",
"|.	c #B41633",
"1.	c #0B3892",
"2.	c #023DC5",
"3.	c #0C2546",
"4.	c #71BA86",
"5.	c #DA604B",
"6.	c #C38C6A",
"7.	c #7063A6",
"8.	c #D80E1D",
"9.	c #1A3E94",
"0.	c #05318C",
"a.	c #0A3994",
"b.	c #1857A6",
"c.	c #63AD92",
"d.	c #A1D39D",
"e.	c #E73729",
"f.	c #FB0604",
"g.	c #768576",
"h.	c #4D80D4",
"i.	c #EF0910",
"j.	c #F1050A",
"k.	c #364493",
"l.	c #0E429D",
"m.	c #287584",
"n.	c #4C9653",
"o.	c #A1C18D",
"p.	c #ED140D",
"q.	c #F0131A",
"r.	c #76A2E0",
"s.	c #3B8CE9",
"t.	c #CC1F36",
"u.	c #FE0000",
"v.	c #57397B",
"w.	c #0F44A0",
"x.	c #043094",
"y.	c #0235A9",
"z.	c #171717",
"A.	c #2B78D6",
"B.	c #368CEA",
"C.	c #6AB172",
"D.	c #7B8962",
"E.	c #F90507",
"F.	c #D92436",
"G.	c #4997ED",
"H.	c #983C6A",
"I.	c #852E5F",
"J.	c #1249A5",
"K.	c #093693",
"L.	c #226BAA",
"M.	c #0D47BA",
"N.	c #022E91",
"O.	c #292B2A",
"P.	c #5A5A5A",
"Q.	c #949494",
"R.	c #CBCBCB",
"S.	c #D3D3D3",
"T.	c #8C6A5D",
"U.	c #175085",
"V.	c #246BC9",
"W.	c #499676",
"X.	c #9F7443",
"Y.	c #B3313B",
"Z.	c #645BA0",
"`.	c #B31C3B",
" +	c #1248A4",
".+	c #2570AF",
"++	c #0A42C1",
"@+	c #01184D",
"#+	c #C4C4C4",
"$+	c #E3E3E3",
"%+	c #DBDBDB",
"&+	c #D4DBD5",
"*+	c #2064C1",
"=+	c #246CB4",
"-+	c #63B65F",
";+	c #B44A26",
">+	c #F70303",
",+	c #D60F1F",
"'+	c #1D459D",
")+	c #1757B2",
"!+	c #3B3B3B",
"~+	c #F3F3F3",
"{+	c #EAEAEA",
"]+	c #4B4B4B",
"^+	c #1D5CB9",
"/+	c #4A9D47",
"(+	c #CF2912",
"_+	c #EF050B",
":+	c #313F8E",
"<+	c #1D64AA",
"[+	c #545454",
"}+	c #293943",
"|+	c #FDFDFD",
"1+	c #1550AD",
"2+	c #1855B2",
"3+	c #1A58B5",
"4+	c #1B5D9C",
"5+	c #297A53",
"6+	c #43962D",
"7+	c #E70F0C",
"8+	c #E40D06",
"9+	c #1A2F70",
"0+	c #484C55",
"a+	c #767676",
"b+	c #828282",
"c+	c #011C55",
"d+	c #435639",
"e+	c #F40601",
"f+	c #C11F06",
"g+	c #0E5A31",
"h+	c #0C534A",
"i+	c #3182CF",
"j+	c #071A45",
"k+	c #090A0D",
"l+	c #223384",
"m+	c #E40610",
"n+	c #FC0100",
"o+	c #9C3E13",
"p+	c #27892A",
"q+	c #26786B",
"r+	c #343434",
"s+	c #BBBBBB",
"t+	c #0F2E85",
"u+	c #CD091B",
"v+	c #64550B",
"w+	c #A82F06",
"x+	c #755C1F",
"y+	c #167718",
"z+	c #9C9C9C",
"A+	c #ABABAB",
"B+	c #7A7A7A",
"C+	c #0D1838",
"D+	c #B10E2D",
"E+	c #873E07",
"F+	c #107D0E",
"G+	c #1C760D",
"H+	c #E01405",
"I+	c #F50400",
"J+	c #2E2C01",
"K+	c #8C8C8C",
"L+	c #B3B3B3",
"M+	c #DC5050",
"N+	c #AC0E0B",
"O+	c #096C07",
"P+	c #096D08",
"Q+	c #0D750D",
"R+	c #42610E",
"S+	c #FA0200",
"T+	c #E90D0D",
"U+	c #A89797",
"V+	c #DF7979",
"W+	c #EE2727",
"X+	c #7E7575",
"Y+	c #2C322C",
"Z+	c #2C442B",
"`+	c #8F1C1C",
" @	c #E42E2E",
".@	c #ABA8A8",
"+@	c #EAA5A5",
"@@	c #FE0202",
"#@	c #F91818",
"$@	c #CFB8B8",
"%@	c #ABA9A9",
"&@	c #E73030",
"*@	c #ED6A6A",
"=@	c #252525",
"-@	c #F5CACA",
";@	c #FD0C0C",
">@	c #FD0A0A",
",@	c #E1B3B3",
"'@	c #C9B2B2",
")@	c #FB1313",
"!@	c #F0A1A1",
"~@	c #F4DDDD",
"{@	c #FE1F1F",
"]@	c #EB9F9F",
"^@	c #EFAAAA",
"/@	c #FD0B0B",
"(@	c #E7BFBF",
"_@	c #E3DADA",
":@	c #FA3232",
"<@	c #F88787",
"[@	c #F16969",
"}@	c #FB2424",
"|@	c #E4D6D6",
"1@	c #DBD7D7",
"2@	c #F34444",
"3@	c #FA6060",
"4@	c #FDFCFC",
"5@	c #DBD6D6",
"6@	c #F92F2F",
"7@	c #F84949",
"8@	c #EAE8E8",
"9@	c #BCB7B7",
"0@	c #EF4A4A",
"a@	c #FB1818",
"b@	c #EAE3E3",
"c@	c #E7BEBE",
"d@	c #F47A7A",
"e@	c #B4CEB7",
"f@	c #85BD87",
"g@	c #110000",
"h@	c #C10A0A",
"i@	c #F24F4F",
"j@	c #F64444",
"k@	c #9B6A40",
"l@	c #6AB66A",
"m@	c #519F51",
"n@	c #F72C2C",
"o@	c #DBDADA",
"p@	c #F55151",
"q@	c #FD0100",
"r@	c #BC674A",
"s@	c #B4CCB5",
"t@	c #EE5151",
"u@	c #DFBCBC",
"v@	c #E3E1E1",
"w@	c #E6C6C6",
"x@	c #EF7C7C",
"y@	c #FE0404",
"z@	c #F42727",
"A@	c #DA7979",
"B@	c #FE0606",
"C@	c #FE0909",
"D@	c #A2A2A2",
"E@	c #6A6A6A",
"F@	c #464646",
"                                                                                                ",
"                                                                                                ",
"                                                                                                ",
"                                        . . . . . . . . .                                       ",
"                                    . + @ # $ % & * = - ; > .                                   ",
"                                . + , ' ) ) ! ~ { ] ^ / ( _ ; > .                               ",
"                              . : < [ } } [ | | 1 { & * 2 3 _ 4 5 .                             ",
"                            . 6 7 8 9 0 0 a a b a c d e f ( g h i > .                           ",
"              j j j j j j j j j j j j j j j k l m n b o j j j j j j j j j j j j j               ",
"              j j j j j j j j j j j j j j p q r m s b t u j j j j j j j j j j j j               ",
"                    j j j j j j j j v w x c c y b z A t ^ B C D j j j j j j                     ",
"                      E j j j j j j F 8 G H 9 I r J A K L / M N j j j j O                       ",
"                      P Q j j j j j R G 9 7 y S a J b o ^ T M U j j j V W                       ",
"                      . X Y j j j j Z ` y n y r n J  ...+.T @.D j j #.$.%..                     ",
"                      &.*.=.-.j j j j ;.>.y ,.'.).!.~.{.f ].^.j j /.(._.$..                     ",
"                      &.L c :.j j j j j <.k a z [.~ % ^ / }.j j |.1.(.4 2..                     ",
"                      3.* 4.k 5.j j j j j 6.,.[.~ % & * 7.j j 8.9.0.a.b.2..                     ",
"                      W f c.b d.e.j j j j f.g.~ % {.* h.i.j j.k.a.0.l.b.2..                     ",
"                      3.3 m.n.,.o.p.j j j j q.r.L * s.t.j u.v.w.x.x.b.b.y..                     ",
"              . . . z.z.A.B.f C.b D.E.j j j j F.G.B.H.j j I.J.K.(.l.L.M.N..                     ",
"        . . O.P.Q.R.S.T.U.V.3 W.m C.X.j j j j j Y.Z.u.j `. +a.(.K.b..+++@+.                     ",
"        z.#+$+$+%+%+&+R.3.*+V.=+n.-+).;+j j j j j >+j ,+'+a.0.x.b..+)+2.>                       ",
"        !+~+{+$+$+%+%+S.]+4 ^+h _ m.n./+(+j j j j j _+:+a.(.N.w.<+g M.%.[+.                     ",
"        }+|+~+{+$+$+%+%+#+3.J.1+2+3+4+5+6+7+j j j j 8+9+(.$.w.<+g 1+2.0+S.a+.                   ",
"        !+~+|+~+{+$+%+%+%+b+c+_.l.i i 4 d+e+j j j j j f+g+h+<+i+2+2.j+%+$+S.@ k+                ",
"        !+{+~+|+~+{+$+$+%+%+]+c+0.0.K.l+m+j n+j j j j j o+p+q+U.2.j+b+#+$+$+S.T..               ",
"        r+$+{+~+|+~+{+$+$+%+s+[+c+0.t+u+j j v+w+j j j j j x+y+h+j+c.z+A+$+{+$+S.B+.             ",
"        r+%+$+{+~+|+|+{+$+%+#+s+6 C+D+j j E+F+G+H+j j j j I+J+O.K+z+z+L+$+$+{+$+R.B+.           ",
"        r+S.%+$+{+~+|+~+{+$+%+s+s+M+j j N+O+P+Q+R+S+j j j j T+U+z+z+A+%+%+S.R.S.%+%+z+.         ",
"        r+S.S.%+$+{+~+~+~+{+$+%+V+j j W+X+]+Y+Z+Z+`+j j j j j  @.@s+S.S.%+$+{+{+{+{+{+.         ",
"        z.s+%+%+%+$+{+~+|+~+{++@@@j #@$@#+s+L+L+A+%@&@j j j j j *@{+{+~+{+{+{+{+{+{+$+.         ",
"        . =@s+%+%+%+$+{+~+|+-@;@j >@,@S.S.S.R.R.#+#+'@)@j j j j j !@$+$+$+{+{+{+{+{+$+.         ",
"          . =@s+%+%+%+$+{+~@{@j u.]@$+%+%+S.S.%+%+{+~+^@j j j j j /@(@{+{+{+{+{+{+{+$+.         ",
"            . =@s+S.%+%+_@:@j j <@{+$+$+{+~+{+~+{+{+$+%+[@j j j j j }@|@{+{+{+{+~+{+%+.         ",
"              . =@s+%+1@2@j j 3@4@~+~+~+{+$+$+%+%+%+%+$+5@6@j j j j j 7@8@{+{+~+{+{+%+.         ",
"                . =@9@0@j j a@b@~+~+~+$+S.%+%+%+%+%+%+$+$+c@@@j j j j j d@e@f@C.n.{+S..         ",
"                  g@h@j j j i@%+{+~+~+%+%+%+%+%+%+$+$+$+%+$+j@j j j j j j k@l@l@m@{+S..         ",
"                  j j j j j n@o@%+{+{+%+%+%+%+%+%+%+%+$+$+{+p@j j j j j j q@r@s@&+S.s+.         ",
"              j j j j j j j j t@u@o@{+%+%+%+%+$+$+$+%+v@w@x@y@j j j j j j j j z@A@K+O..         ",
"          j j j j j j j j j j j j B@{+%+%+%+%+$+$+$+$+C@j j j j j j j j j j j j j . .           ",
"          j j j j j j j j j j j j j {+$+%+%+$+%+$+$+$+j j j j j j j j j j j j j j               ",
"                            . =@s+R.$+%+%+$+$+%+%+%+%+%+S.D@P.r+. .                             ",
"                              . =@s+$+$+$+%+%+%+%+D@E@F@. .                                     ",
"                                . =@R.%+%+D@E@]+. .                                             ",
"                                  . z.]+. .                                                     ",
"                                                                                                ",
"                                                                                                ",
"                                                                                                "};
